<svg id="visual" viewBox="0 0 960 540" width="960" height="540" xmlns="http://www.w3.org/2000/svg" xmlns:xlink="http://www.w3.org/1999/xlink" version="1.1"><rect x="0" y="0" width="960" height="540" fill="#E92D9D"></rect><defs><linearGradient id="grad1_0" x1="43.8%" y1="100%" x2="100%" y2="0%"><stop offset="14.444444444444446%" stop-color="#e92d9d" stop-opacity="1"></stop><stop offset="85.55555555555554%" stop-color="#e92d9d" stop-opacity="1"></stop></linearGradient></defs><defs><linearGradient id="grad2_0" x1="0%" y1="100%" x2="56.3%" y2="0%"><stop offset="14.444444444444446%" stop-color="#e92d9d" stop-opacity="1"></stop><stop offset="85.55555555555554%" stop-color="#e92d9d" stop-opacity="1"></stop></linearGradient></defs><g transform="translate(960, 540)"><path d="M-378 0C-340.5 -36.8 -302.9 -73.6 -288.3 -119.4C-273.6 -165.2 -281.8 -219.9 -261.6 -261.6C-241.5 -303.3 -193 -332 -144.7 -349.2C-96.3 -366.4 -48.2 -372.2 0 -378L0 0Z" fill="#9121C4"></path></g><g transform="translate(0, 0)"><path d="M378 0C348.8 38.3 319.6 76.6 306.7 127.1C293.9 177.5 297.3 240.2 267.3 267.3C237.3 294.4 173.7 285.9 123.6 298.4C73.5 310.9 36.7 344.5 0 378L0 0Z" fill="#9121C4"></path></g></svg>