<svg version="1.1" id="Layer_1" xmlns="http://www.w3.org/2000/svg" xmlns:xlink="http://www.w3.org/1999/xlink" x="0px" y="0px"
	 width="100%" viewBox="0 0 352 352" enable-background="new 0 0 352 352" xml:space="preserve">
<path fill="#000000" opacity="1.000000" stroke="none" 
	d="
M188.069580,267.686768 
	C190.735092,267.978363 193.142609,266.964996 195.152237,268.524017 
	C195.370880,270.214600 194.294861,270.691071 193.134903,270.996643 
	C171.261383,276.759216 134.559204,263.971008 121.452599,245.628479 
	C110.362724,230.108261 108.461914,212.909882 113.492470,194.746140 
	C113.935822,193.145340 114.424019,191.555115 114.799789,189.938675 
	C114.899261,189.510788 114.657303,189.003525 114.369553,187.413055 
	C106.463661,198.581772 100.690651,209.692398 98.008957,222.325363 
	C95.284477,235.159866 98.068314,247.290421 103.690811,259.630737 
	C98.444893,257.642700 92.172455,245.588791 90.755379,236.968445 
	C89.279755,227.991882 89.177353,219.148239 91.726707,210.305374 
	C94.172455,201.821869 98.589844,194.215836 101.956619,186.000412 
	C95.154587,190.520126 89.635704,196.083252 85.932053,203.399261 
	C82.185623,210.799789 81.760445,218.641373 82.036774,226.744919 
	C82.315575,234.920868 86.298180,242.161362 87.984650,249.988129 
	C85.559990,250.483047 84.975548,249.080215 84.227043,248.060257 
	C77.030815,238.254089 71.349289,227.673523 70.395836,215.360001 
	C69.638748,205.582596 73.348297,196.710663 78.308105,188.491592 
	C81.555382,183.110428 84.956657,178.249847 85.298386,171.347412 
	C85.633820,164.572296 90.378738,159.222031 95.326981,154.545029 
	C97.082176,152.886032 99.162735,151.447800 100.172859,148.872864 
	C99.341888,148.600891 98.822891,148.226517 98.474220,148.346634 
	C87.693810,152.060135 77.493927,150.318039 67.610565,145.208176 
	C64.127136,143.407166 61.222466,144.116806 58.900177,147.365997 
	C57.965984,148.673050 57.047050,150.238083 54.923817,149.855835 
	C53.263962,148.679779 53.766308,146.876144 53.761940,145.298935 
	C53.739799,137.300507 53.751286,129.301071 53.871841,121.303818 
	C53.902363,119.278885 53.262146,116.302574 56.274609,116.123848 
	C58.723804,115.978539 58.851772,118.721077 59.351620,120.610085 
	C62.467415,132.385162 69.082169,140.937088 81.296097,144.216171 
	C88.971817,146.276871 97.871872,142.982803 101.047714,137.053726 
	C103.549385,132.383286 102.760193,127.777199 98.856422,123.297752 
	C95.243301,119.151833 90.436096,116.887299 85.671066,114.470810 
	C80.329178,111.761795 74.978081,109.034149 69.844559,105.958191 
	C56.474022,97.946693 52.122189,85.560280 57.644154,71.921974 
	C62.229046,60.598080 77.683250,53.291161 90.748009,56.254745 
	C94.348495,57.071472 97.746269,58.415878 100.993973,60.141308 
	C105.099060,62.322254 108.636909,62.715260 110.531670,57.358711 
	C110.757378,56.720634 111.079498,56.116653 111.202080,55.842804 
	C114.794533,56.913124 114.113174,59.240200 114.105537,61.054871 
	C114.079643,67.204948 113.860085,73.353996 113.743439,79.503975 
	C113.666664,83.552208 115.700745,84.855865 119.683334,84.829933 
	C142.178757,84.683388 164.675568,84.750992 187.171906,84.745590 
	C199.812790,84.742554 211.982742,86.830177 223.487915,92.381676 
	C245.054031,102.787857 246.903931,126.522812 237.379135,141.550018 
	C233.138916,148.239777 226.493149,151.577423 219.111633,153.761810 
	C217.327759,154.289719 215.038452,153.891510 213.767899,155.980164 
	C214.926712,158.147324 217.029434,158.202744 218.886276,158.654541 
	C225.942551,160.371429 232.420868,163.405594 238.181366,167.752304 
	C249.671249,176.422287 252.130936,188.503082 249.504303,201.713928 
	C248.493591,206.797485 249.619705,210.186264 252.717026,213.849899 
	C261.473816,224.207855 274.753357,229.066635 285.590698,225.564789 
	C299.073700,221.208069 302.144104,208.897141 292.234406,198.873566 
	C287.931427,194.521149 282.427826,192.021088 277.105011,189.284912 
	C268.359467,184.789291 259.555115,180.415771 252.170197,173.742142 
	C243.553040,165.954956 239.126297,156.811646 241.860397,144.848251 
	C245.044113,130.917618 253.482071,122.379852 267.180542,118.841797 
	C276.296326,116.487373 284.995361,117.705414 293.327423,121.980438 
	C294.808746,122.740471 296.316559,123.457870 297.849457,124.106850 
	C303.934540,126.683067 304.926849,126.316643 307.805176,120.508812 
	C308.322601,119.464767 308.731293,118.338737 310.249664,118.124329 
	C312.663025,118.743149 312.147949,120.851875 312.156128,122.553375 
	C312.200958,131.882126 312.197205,141.211594 312.119904,150.540070 
	C312.104218,152.437622 312.549316,155.139374 309.909973,155.406250 
	C307.339417,155.666168 307.166626,153.051086 306.695068,151.129791 
	C304.361328,141.621277 298.978058,134.224625 290.842010,128.913300 
	C280.623016,122.242233 267.709015,123.937729 261.745117,132.541794 
	C258.168762,137.701355 258.373657,142.838440 262.521332,147.635223 
	C267.108826,152.940643 273.351257,155.863663 279.424347,158.971527 
	C286.837433,162.765167 294.319672,166.404053 301.323364,170.963806 
	C312.707214,178.375214 319.173340,188.356979 317.617889,202.327698 
	C316.037659,216.520950 307.291534,225.560150 294.863129,230.977951 
	C283.501160,235.930878 271.711914,235.220734 260.450439,230.252167 
	C253.925232,227.373260 247.976578,224.910202 242.959503,232.447128 
	C242.395126,233.294952 241.350647,233.745239 240.301453,233.465378 
	C238.905960,233.093155 238.756042,231.858795 238.739212,230.658112 
	C238.711624,228.689041 238.731750,226.719315 238.731750,223.776657 
	C216.773788,242.345215 191.646286,241.246994 166.164017,237.881470 
	C163.950531,237.589142 160.979019,237.920273 159.662079,234.540405 
	C161.917404,232.994049 164.458389,233.644974 166.757263,233.749039 
	C177.903717,234.253708 188.695389,232.538300 199.003998,228.394211 
	C208.864700,224.430176 217.187912,218.162781 221.784073,208.418701 
	C227.591980,196.105759 224.726486,183.492599 214.609711,173.205231 
	C212.324829,170.881821 209.633652,168.957947 206.696152,166.485397 
	C205.145462,171.152023 203.978775,175.151611 200.859604,177.886887 
	C204.743576,184.485703 206.584442,191.002716 204.073715,198.178864 
	C203.320786,200.330948 204.700119,202.040131 205.334717,203.882599 
	C207.650452,210.606003 206.052597,214.722168 199.598938,217.736328 
	C193.821899,220.434494 187.697174,222.302414 181.317780,222.206467 
	C168.106934,222.007751 159.086838,227.792969 154.091965,239.991638 
	C153.680893,240.995590 153.473114,242.307083 152.032089,242.548996 
	C150.865250,238.630310 153.618164,231.222031 158.080505,226.360641 
	C163.199921,220.783432 169.691376,218.290344 177.129181,217.697479 
	C183.422546,217.195847 189.748184,216.636200 195.739746,214.436905 
	C201.846680,212.195312 202.923416,209.691757 200.240753,203.755997 
	C198.865723,200.713531 198.955490,198.119995 199.840881,194.764450 
	C200.744308,191.340591 201.128159,186.573944 197.798508,183.848450 
	C193.986557,180.728165 194.781158,178.198334 197.268188,174.999649 
	C202.190521,168.668839 202.121338,168.624435 194.644363,165.600021 
	C192.330582,164.664093 190.104218,163.513275 187.796951,162.559784 
	C181.751999,160.061707 178.339920,155.871902 177.450699,149.121948 
	C176.267624,140.141464 173.006882,131.741165 168.453949,123.868645 
	C167.507126,122.231483 166.109543,120.652702 166.580536,118.347359 
	C169.397049,118.488411 170.356354,120.615646 171.580826,122.253906 
	C176.849762,129.303329 180.792603,137.086136 181.558044,145.890121 
	C182.288437,154.290802 187.214096,158.099686 194.967728,160.250183 
	C195.418442,156.494110 198.624329,155.325897 201.322296,153.492310 
	C211.735397,146.415314 220.063156,138.120941 219.744553,124.095032 
	C219.396408,108.769035 208.581863,96.969528 193.380722,95.217827 
	C180.934677,93.783600 168.425980,94.904953 155.976700,93.524658 
	C148.862930,92.735924 146.337234,95.849915 146.705276,102.867050 
	C147.094452,110.287735 142.901215,115.988571 138.692261,121.196602 
	C131.006241,130.707031 120.776291,137.527740 111.270721,145.082443 
	C103.961281,150.891739 96.744873,156.818665 91.322052,164.546661 
	C89.346306,167.362289 87.758446,170.409454 87.519073,173.891068 
	C89.117393,174.540741 89.747406,173.606567 90.375511,172.902054 
	C102.620857,159.167023 117.132874,147.894897 130.712387,135.605164 
	C138.481064,128.574341 146.044052,121.211815 151.293777,111.985298 
	C153.279785,108.494850 154.485397,104.560356 156.426346,99.920860 
	C160.759109,107.757927 162.353958,115.359612 163.352051,123.046799 
	C165.968872,143.200851 161.016495,161.645142 150.357300,178.770020 
	C142.504684,191.385910 136.881317,204.665497 137.328110,220.029404 
	C137.860214,238.326202 146.137970,251.791000 161.818710,260.719879 
	C169.734772,265.227448 178.505188,267.262329 188.069580,267.686768 
M86.357414,61.306332 
	C85.025948,61.343964 83.641037,61.156651 82.372253,61.458099 
	C76.826485,62.775742 72.487709,65.672661 71.184052,71.571800 
	C70.044426,76.728699 73.143814,80.163971 76.912743,82.836166 
	C80.292671,85.232544 83.961868,87.252388 87.624916,89.211212 
	C94.529190,92.903305 101.562164,96.383209 107.717888,101.291252 
	C117.463432,109.061508 120.364395,119.139542 116.575386,131.122620 
	C116.118126,132.568741 114.893967,134.056061 116.069839,135.982010 
	C119.975212,134.534836 122.484894,132.227753 123.075462,127.834091 
	C124.103935,120.182556 123.990181,112.510559 123.200539,104.917068 
	C122.389389,97.116829 117.691315,92.285095 109.834763,90.819374 
	C108.201324,90.514641 106.531807,90.393394 104.907852,90.050514 
	C103.267220,89.704109 101.456673,89.307961 101.629601,87.045937 
	C101.782814,85.041924 103.439552,84.969864 104.953560,84.774506 
	C106.240334,84.608475 107.654289,84.985947 108.751083,83.943474 
	C108.519272,73.259552 99.084389,63.358574 86.357414,61.306332 
z"/>
</svg>