<svg viewBox="0 0 2000 1000" xmlns="http://www.w3.org/2000/svg"><mask id="b" x="0" y="0" width="2000" height="1000"><path fill="url(#a)" d="M0 0h2000v1000H0z"/></mask><path fill="#000336" d="M0 0h2000v1000H0z"/><g style="transform-origin:center center" stroke="#4c4e72" stroke-width="4" fill="none" mask="url(#b)"><path d="M0 0h105v105H0zM105 0h105v105H105zM210 0h105v105H210zM315 0h105v105H315zM420 0h105v105H420zM525 0h105v105H525zM630 0h105v105H630zM735 0h105v105H735zM840 0h105v105H840zM945 0h105v105H945zM1050 0h105v105h-105zM1155 0h105v105h-105zM1260 0h105v105h-105zM1365 0h105v105h-105zM1470 0h105v105h-105zM1575 0h105v105h-105zM1680 0h105v105h-105zM1785 0h105v105h-105zM1890 0h105v105h-105zM0 105h105v105H0zM105 105h105v105H105zM210 105h105v105H210zM315 105h105v105H315zM420 105h105v105H420zM525 105h105v105H525zM630 105h105v105H630zM735 105h105v105H735zM840 105h105v105H840zM945 105h105v105H945zM1050 105h105v105h-105zM1155 105h105v105h-105zM1260 105h105v105h-105zM1365 105h105v105h-105zM1470 105h105v105h-105zM1575 105h105v105h-105zM1680 105h105v105h-105zM1785 105h105v105h-105zM1890 105h105v105h-105zM0 210h105v105H0zM105 210h105v105H105zM210 210h105v105H210zM315 210h105v105H315zM420 210h105v105H420zM525 210h105v105H525zM630 210h105v105H630zM735 210h105v105H735zM840 210h105v105H840zM945 210h105v105H945zM1050 210h105v105h-105zM1155 210h105v105h-105zM1260 210h105v105h-105zM1365 210h105v105h-105zM1470 210h105v105h-105zM1575 210h105v105h-105zM1680 210h105v105h-105zM1785 210h105v105h-105zM1890 210h105v105h-105zM0 315h105v105H0zM105 315h105v105H105zM210 315h105v105H210zM315 315h105v105H315zM420 315h105v105H420zM525 315h105v105H525zM630 315h105v105H630zM735 315h105v105H735zM840 315h105v105H840zM945 315h105v105H945zM1050 315h105v105h-105zM1155 315h105v105h-105zM1260 315h105v105h-105zM1365 315h105v105h-105zM1470 315h105v105h-105zM1575 315h105v105h-105zM1680 315h105v105h-105zM1785 315h105v105h-105zM1890 315h105v105h-105zM0 420h105v105H0zM105 420h105v105H105zM210 420h105v105H210zM315 420h105v105H315zM420 420h105v105H420zM525 420h105v105H525zM630 420h105v105H630zM735 420h105v105H735zM840 420h105v105H840zM945 420h105v105H945zM1050 420h105v105h-105zM1155 420h105v105h-105zM1260 420h105v105h-105zM1365 420h105v105h-105zM1470 420h105v105h-105zM1575 420h105v105h-105zM1680 420h105v105h-105zM1785 420h105v105h-105zM1890 420h105v105h-105zM0 525h105v105H0zM105 525h105v105H105zM210 525h105v105H210zM315 525h105v105H315zM420 525h105v105H420zM525 525h105v105H525zM630 525h105v105H630zM735 525h105v105H735zM840 525h105v105H840zM945 525h105v105H945zM1050 525h105v105h-105zM1155 525h105v105h-105zM1260 525h105v105h-105zM1365 525h105v105h-105zM1470 525h105v105h-105zM1575 525h105v105h-105zM1680 525h105v105h-105zM1785 525h105v105h-105zM1890 525h105v105h-105zM0 630h105v105H0zM105 630h105v105H105zM210 630h105v105H210zM315 630h105v105H315zM420 630h105v105H420zM525 630h105v105H525zM630 630h105v105H630zM735 630h105v105H735zM840 630h105v105H840zM945 630h105v105H945zM1050 630h105v105h-105zM1155 630h105v105h-105zM1260 630h105v105h-105zM1365 630h105v105h-105zM1470 630h105v105h-105zM1575 630h105v105h-105zM1680 630h105v105h-105zM1785 630h105v105h-105zM1890 630h105v105h-105zM0 735h105v105H0zM105 735h105v105H105zM210 735h105v105H210zM315 735h105v105H315zM420 735h105v105H420zM525 735h105v105H525zM630 735h105v105H630zM735 735h105v105H735zM840 735h105v105H840zM945 735h105v105H945zM1050 735h105v105h-105zM1155 735h105v105h-105zM1260 735h105v105h-105zM1365 735h105v105h-105zM1470 735h105v105h-105zM1575 735h105v105h-105zM1680 735h105v105h-105zM1785 735h105v105h-105zM1890 735h105v105h-105zM0 840h105v105H0zM105 840h105v105H105zM210 840h105v105H210zM315 840h105v105H315zM420 840h105v105H420zM525 840h105v105H525zM630 840h105v105H630zM735 840h105v105H735zM840 840h105v105H840zM945 840h105v105H945zM1050 840h105v105h-105zM1155 840h105v105h-105zM1260 840h105v105h-105zM1365 840h105v105h-105zM1470 840h105v105h-105zM1575 840h105v105h-105zM1680 840h105v105h-105zM1785 840h105v105h-105zM1890 840h105v105h-105zM0 945h105v105H0zM105 945h105v105H105zM210 945h105v105H210zM315 945h105v105H315zM420 945h105v105H420zM525 945h105v105H525zM630 945h105v105H630zM735 945h105v105H735zM840 945h105v105H840zM945 945h105v105H945zM1050 945h105v105h-105zM1155 945h105v105h-105zM1260 945h105v105h-105zM1365 945h105v105h-105zM1470 945h105v105h-105zM1575 945h105v105h-105zM1680 945h105v105h-105zM1785 945h105v105h-105zM1890 945h105v105h-105z"/></g><defs><radialGradient id="a"><stop offset="0" stop-color="#fff"/><stop offset="1" stop-color="#fff"/></radialGradient></defs></svg>